Coordinates
version=1
nRows=11
nColumns=46
inDegrees=yes

Units are S.I. units (second, meters, Newtons, ...)
Angles are in degrees.

endheader
time	pelvis_tilt	pelvis_list	pelvis_rotation	pelvis_tx	pelvis_ty	pelvis_tz	bb_angle	bb_tx	bb_ty	bb_tz	hip_flexion_r	hip_adduction_r	hip_rotation_r	knee_angle_r	knee_angle_r_beta	ankle_angle_r	subtalar_angle_r	mtp_angle_r	crank_angle_r	hip_flexion_l	hip_adduction_l	hip_rotation_l	knee_angle_l	knee_angle_l_beta	ankle_angle_l	subtalar_angle_l	mtp_angle_l	crank_angle_l	lumbar_extension	lumbar_bending	lumbar_rotation	arm_flex_r	arm_add_r	arm_rot_r	elbow_flex_r	pro_sup_r	wrist_flex_r	wrist_dev_r	arm_flex_l	arm_add_l	arm_rot_l	elbow_flex_l	pro_sup_l	wrist_flex_l	wrist_dev_l
      0.00500000	    -25.51929751	     -0.85003551	     13.12813290	      0.40509898	      1.17965198	     -0.21404836	      0.00000000	      0.50000000	      0.00000000	      0.25000000	     42.07236975	     -6.75064071	     -1.63448782	     65.00973503	      1.13463392	     -7.16143523	    -26.66430787	      0.00000000	      0.00000000	     62.36387520	      4.41772497	      8.10499228	     61.61306395	      1.07535083	      8.96487064	     -3.27977029	      0.00000000	      0.00000000	    -56.24283071	     -3.00212106	    -10.18589906	     58.51859343	    -21.96087669	     36.88929446	     52.77992054	     57.11226498	      0.00000000	      0.00000000	     63.60459527	    -17.02185746	     29.96317260	     71.73132003	     55.40793364	      0.00000000	      0.00000000
      0.01000000	    -25.60677893	     -1.31955209	     12.60276821	      0.40498040	      1.17735212	     -0.21366351	      0.00000000	      0.50000000	      0.00000000	      0.25000000	     43.46791270	     -6.32681833	     -1.77797955	     67.77229854	      1.18284975	     -7.18534289	    -26.70022668	      0.00000000	      0.00000000	     61.38195238	      3.79816643	      8.52854712	     59.32217984	      1.03536736	      7.46704319	     -3.74473308	      0.00000000	      0.00000000	    -56.01766760	     -2.81117947	     -9.71432997	     58.87817712	    -22.00321823	     37.08788894	     52.86232986	     57.18224715	      0.00000000	      0.00000000	     63.45454143	    -17.53309465	     30.07655321	     72.05732942	     55.46690146	      0.00000000	      0.00000000
      0.01500000	    -25.88653631	     -1.88355592	     11.95737735	      0.40523586	      1.17468911	     -0.21346022	      0.00000000	      0.50000000	      0.00000000	      0.25000000	     44.97460968	     -5.70976348	     -1.79104762	     70.39078043	      1.22855088	     -7.00014285	    -26.71153138	      0.00000000	      0.00000000	     60.56284024	      3.03842898	      8.92738051	     57.09582271	      0.99651010	      6.13643687	     -4.05229289	      0.00000000	      0.00000000	    -55.68361817	     -3.22808217	     -9.10633587	     58.71294760	    -22.33211220	     37.38984016	     52.77656390	     57.24540235	      0.00000000	      0.00000000	     63.35510135	    -17.53138925	     30.40217028	     72.72932622	     55.60083315	      0.00000000	      0.00000000
      0.02000000	    -26.33155273	     -2.80995761	     11.13944621	      0.40531145	      1.17118748	     -0.21279017	      0.00000000	      0.50000000	      0.00000000	      0.25000000	     46.53442321	     -4.40377476	     -1.64570787	     72.85128398	      1.27149477	     -6.57967738	    -26.50483889	      0.00000000	      0.00000000	     60.24458090	      1.61405766	      9.01150683	     55.30714962	      0.96529186	      4.98500801	     -4.22470335	      0.00000000	      0.00000000	    -54.97654050	     -3.42053131	     -8.35100558	     58.46077278	    -22.52130650	     38.29664273	     53.22742919	     57.54589640	      0.00000000	      0.00000000	     63.49708205	    -18.75514787	     32.33661419	     73.49338838	     55.90293634	      0.00000000	      0.00000000
      0.02500000	    -25.34217619	     -2.73422520	     11.60071092	      0.40448167	      1.17169340	     -0.21342735	      0.00000000	      0.50000000	      0.00000000	      0.25000000	     46.36317227	     -4.91450345	     -2.13023178	     75.21914447	      1.31282173	     -6.29323330	    -25.98305025	      0.00000000	      0.00000000	     57.63837863	      1.96317060	      9.70556344	     52.45097821	      0.91544227	      3.12317580	     -5.19234598	      0.00000000	      0.00000000	    -56.12289773	     -3.21303102	     -8.56315196	     58.89730999	    -23.20399987	     39.23027862	     53.33013403	     57.82611206	      0.00000000	      0.00000000	     65.28847172	    -20.44729848	     35.00963446	     73.85790492	     56.15828988	      0.00000000	      0.00000000
      0.03000000	    -25.59314817	     -3.33012439	     10.66789117	      0.40475549	      1.16849225	     -0.21368983	      0.00000000	      0.50000000	      0.00000000	      0.25000000	     47.85723233	     -3.84970125	     -1.77622005	     77.70768165	      1.35625490	     -6.05278642	    -25.26429107	      0.00000000	      0.00000000	     56.68469237	      1.15465340	     10.03386393	     50.28590957	      0.87765469	      1.74960473	     -5.74032514	      0.00000000	      0.00000000	    -55.60649545	     -3.45470942	     -8.03516754	     59.04813374	    -23.43520218	     39.33401340	     53.58134635	     57.97252572	      0.00000000	      0.00000000	     65.64705681	    -21.55621553	     37.21822449	     73.99786085	     56.32072361	      0.00000000	      0.00000000
      0.03500000	    -25.76891632	     -3.99346599	      9.70542321	      0.40492605	      1.16549696	     -0.21369709	      0.00000000	      0.50000000	      0.00000000	      0.25000000	     49.34457152	     -2.95006701	     -1.71067284	     80.19768741	      1.39971370	     -5.25905694	    -24.02506420	      0.00000000	      0.00000000	     55.68554415	     -0.05447727	     10.11008314	     48.29100230	      0.84283699	      0.72799395	     -5.73377143	      0.00000000	      0.00000000	    -55.11681809	     -3.68985111	     -6.95847156	     58.78582982	    -24.40045182	     39.77959222	     54.33988716	     58.31820961	      0.00000000	      0.00000000	     65.80693273	    -21.82603939	     38.08941943	     74.05983315	     56.16811246	      0.00000000	      0.00000000
      0.04000000	    -26.02044029	     -4.73172898	      8.71728399	      0.40489555	      1.16239863	     -0.21379898	      0.00000000	      0.50000000	      0.00000000	      0.25000000	     51.01195437	     -2.06075467	     -1.64215171	     82.71336388	      1.44362054	     -4.94836026	    -23.95466974	      0.00000000	      0.00000000	     54.57375108	     -1.18822549	     10.41792139	     46.02802273	      0.80334054	     -0.47966995	     -6.50139379	      0.00000000	      0.00000000	    -54.48847372	     -3.75247495	     -6.00395197	     58.66783619	    -24.69063323	     40.21884581	     54.57986348	     58.43364499	      0.00000000	      0.00000000	     65.56242016	    -22.03482518	     38.31045290	     74.31180223	     56.20539410	      0.00000000	      0.00000000
      0.04500000	    -26.21886026	     -5.56216248	      7.60348711	      0.40496514	      1.15922332	     -0.21399727	      0.00000000	      0.50000000	      0.00000000	      0.25000000	     52.66358169	     -0.98683449	     -1.53477140	     85.21025793	      1.48719956	     -3.74143932	    -24.13403840	      0.00000000	      0.00000000	     53.41576523	     -2.37486887	     11.09571940	     43.97789565	      0.76755908	     -1.59856353	     -7.49117692	      0.00000000	      0.00000000	    -53.86378367	     -3.71588112	     -4.90072418	     58.63419383	    -25.19788264	     40.93039674	     55.31732479	     58.65845340	      0.00000000	      0.00000000	     65.12210991	    -22.31317725	     38.35751507	     74.54791290	     56.22195386	      0.00000000	      0.00000000
      0.05000000	    -26.21281349	     -6.21107285	      6.44473824	      0.40523477	      1.15669557	     -0.21433409	      0.00000000	      0.50000000	      0.00000000	      0.25000000	     54.12544077	     -0.00712408	     -1.31977771	     87.68033582	      1.53031055	     -1.59083263	    -24.39682933	      0.00000000	      0.00000000	     51.96444574	     -3.74083171	     11.09074497	     41.88289433	      0.73099441	     -2.46978711	     -7.31474496	      0.00000000	      0.00000000	    -53.58364799	     -3.61792161	     -3.91624074	     58.87752537	    -25.96027041	     42.03418749	     56.42592153	     58.98521686	      0.00000000	      0.00000000	     64.16182864	    -22.96692063	     37.19452407	     75.55658652	     56.21416011	      0.00000000	      0.00000000
      0.05500000	    -26.23501503	     -6.97108704	      5.22395337	      0.40553384	      1.15407307	     -0.21471781	      0.00000000	      0.50000000	      0.00000000	      0.25000000	     55.62346529	      1.07221734	     -1.27984328	     89.98071017	      1.57045966	     -0.55006783	    -24.35672618	      0.00000000	      0.00000000	     50.52957878	     -5.20568540	     11.14010856	     39.87553379	      0.69595936	     -3.36002282	     -7.61943505	      0.00000000	      0.00000000	    -53.15655784	     -3.48355489	     -2.83612930	     59.14591797	    -26.16428402	     42.82707850	     56.65955249	     59.11944905	      0.00000000	      0.00000000	     63.23792277	    -23.25264822	     36.54668205	     75.89886509	     56.17363949	      0.00000000	      0.00000000
